<svg width="16" height="15" viewBox="0 0 16 15" fill="none" xmlns="http://www.w3.org/2000/svg">
<path d="M1.69042 15C0.982087 15 0.478615 14.684 0.180004 14.0521C-0.118607 13.4201 -0.0456906 12.8333 0.398754 12.2917L5.02375 6.66667V1.66667H4.19042C3.95431 1.66667 3.75639 1.58681 3.59667 1.42708C3.43695 1.26736 3.35709 1.06944 3.35709 0.833333C3.35709 0.597222 3.43695 0.399306 3.59667 0.239583C3.75639 0.0798611 3.95431 0 4.19042 0H10.8571C11.0932 0 11.2911 0.0798611 11.4508 0.239583C11.6106 0.399306 11.6904 0.597222 11.6904 0.833333C11.6904 1.06944 11.6106 1.26736 11.4508 1.42708C11.2911 1.58681 11.0932 1.66667 10.8571 1.66667H10.0238V6.66667L14.6488 12.2917C15.0932 12.8333 15.1661 13.4201 14.8675 14.0521C14.5689 14.684 14.0654 15 13.3571 15H1.69042ZM1.69042 13.3333H13.3571L8.35709 7.25V1.66667H6.69042V7.25L1.69042 13.3333Z" fill="white" fill-opacity="0.8"/>
</svg>
