<svg width="15" height="15" viewBox="0 0 15 15" fill="none" xmlns="http://www.w3.org/2000/svg">
<path d="M1.66667 13.3333H2.85417L11 5.1875L9.8125 4L1.66667 12.1458V13.3333ZM0 15V11.4583L11 0.479167C11.1667 0.326389 11.3507 0.208333 11.5521 0.125C11.7535 0.0416667 11.9653 0 12.1875 0C12.4097 0 12.625 0.0416667 12.8333 0.125C13.0417 0.208333 13.2222 0.333333 13.375 0.5L14.5208 1.66667C14.6875 1.81944 14.809 2 14.8854 2.20833C14.9618 2.41667 15 2.625 15 2.83333C15 3.05556 14.9618 3.26736 14.8854 3.46875C14.809 3.67014 14.6875 3.85417 14.5208 4.02083L3.54167 15H0ZM13.3333 2.83333L12.1667 1.66667L13.3333 2.83333ZM10.3958 4.60417L9.8125 4L11 5.1875L10.3958 4.60417Z" fill="#9CA3AF"/>
</svg>
