<svg width="17" height="17" viewBox="0 0 17 17" fill="none" xmlns="http://www.w3.org/2000/svg">
<path d="M2.5 16.6667C2.04167 16.6667 1.64931 16.5035 1.32292 16.1771C0.996528 15.8507 0.833333 15.4583 0.833333 15V5.60417C0.583333 5.45139 0.381944 5.25347 0.229167 5.01042C0.0763889 4.76736 0 4.48611 0 4.16667V1.66667C0 1.20833 0.163194 0.815972 0.489583 0.489583C0.815972 0.163194 1.20833 0 1.66667 0H15C15.4583 0 15.8507 0.163194 16.1771 0.489583C16.5035 0.815972 16.6667 1.20833 16.6667 1.66667V4.16667C16.6667 4.48611 16.5903 4.76736 16.4375 5.01042C16.2847 5.25347 16.0833 5.45139 15.8333 5.60417V15C15.8333 15.4583 15.6701 15.8507 15.3438 16.1771C15.0174 16.5035 14.625 16.6667 14.1667 16.6667H2.5ZM2.5 5.83333V15H14.1667V5.83333H2.5ZM1.66667 4.16667H15V1.66667H1.66667V4.16667ZM5.83333 10H10.8333V8.33333H5.83333V10Z" fill="white" fill-opacity="0.8"/>
</svg>
