<?xml version="1.0" encoding="UTF-8"?>
<svg id="Calque_2" data-name="Calque 2" xmlns="http://www.w3.org/2000/svg" viewBox="0 0 142 60">
  <defs>
    <style>
      .cls-1 {
        fill-rule: evenodd;
      }

      .cls-1, .cls-2 {
        fill: #fff;
      }
    </style>
  </defs>
  <g id="Accueil">
    <g>
      <path class="cls-1" d="M36.42,9.19c.23-1.87-.05-4.61,1.43-5.9.44-2,3.6-1.53,3.11-2.8-.31-.8-1.79-.42-2.4-.27-.45.11-4.8,1.47-6.47,1.66-.71-.2-1.41-.39-2.12-.59-2.72.36-4.3,2.52-5.81,4.23-1.27,1.44-2.99,4.95-1.62,7.05-.08.46-.15.92-.23,1.38l3.1,4.5c1.07.76,1.21,1.33,2.36,2.08.24.35.47.71.71,1.06.94.61,3.71.62,4.18.22,4.46.41,3.98-8.57,5.4-10.45-.18-.85-.93-1.73-1.64-2.16M17.18,36.15c.95-.24,2.56-.37,3.41-.79,1.35-.67,5.98-3.89,4.51-6.51-.46-5.52-7.16-.85-10.01-2.79-2.89-.37-6.14-5.8-7-8.12-.34-.92-.2-.6-.66-1.33,0-.07-.3.25-.29.18-.85.98-.7,1.83-.83,4.21-.38-.02-.75-.05-1.14-.07-.07.86-.16,1.34-.57,1.78-.08.15-.17.29-.25.44-.72-.24-.36.1-.65-.5-2.66.13-2.46,2.79-3.68,4.3.06,4.96,9.93,11.07,17.18,9.21M49.99,21.1c-4.31.65-6.95,2.01-8.57,3.13-1.13.79-1.47,1.32-1.71,1.65-.25.33-.41,1.07-.29,1.84.12.77.44,1.58,1.11,2.04,5.29-.39,14.48-.72,16.27,3.7.1.61.23.98.25,1.13,1.75-.43.47-.28,3.05.13.59.09,2.05-.24,3.02-.47.44-.1.69-.5.69-.5,0,0-.08-.42-.06-.65,0,0,.91.07,1.28-.22,2.45-.4,1.16-1.54,2.32-2.82-.7-8.26-9.22-10.17-17.34-8.95M40.54,39.05c-1.23.93-1.74.7-2.46,2.14-.07,0,.11.22.03.22.73,1.45,2.41,2.04,3.64,3.06.38.32,1.43,2.11,1.92,2.25.55.66.92,2.48,1.28,2.48.38.51-.03,1.72.34,2.19.03,2.16-.28,2.31-.65,2.73,0,.15.21.54.21.69.1.1.97.72,1.35.65,1.18.04,6.03,3.79,6.41,4.52,3.48.26,3.23-.8,5.62-1.81.65-.28,1.16-.01,1.59-.45.44-.45.48-1.35.91-1.81.06-8.5-11.58-16.55-20.2-16.84M26.84,40.99c-.48.51-1.81.7-2.19,1.28-.57.89-1.88,2.9-2.9,3.87-3.29,3.11-10.34,4.67-13.82,1.7-.23.02-.09.15.18.99.25,1.61,1.56,5.38,1.08,6.34.31,1.07.64.68,1.23,1.27.41.4.57,1.45,1.03,1.74.53-.03,1.06-.07,1.59-.11.09.29.19.59.29.89.68-.05,1.36-.1,2.04-.15.38.09,1.54.68,1.88.77.75-.05,1.51-.1,2.27-.16,1.73.46,3.24-.26,4.7-1.24.81-.54,1.71-.46,2.43-1.07,1.05-.89,2.47-2.64,3.14-3.84,1.64-2.96,1.08-10.04-.4-11.79-.58-.63-1.27-.64-2.54-.5"/>
      <path class="cls-2" d="M110.32,21.68c7.16,0,12,4.49,12,12.54,0,10.11-6.65,13.1-13.62,13.1h-9.33c.03-.56,0-2.06,0-3.93v-17.78c0-1.87.03-3.07,0-3.93h10.95ZM108.23,42.46c3.95,0,7.17-1.3,7.17-8.24,0-5.9-3.22-7.86-7.17-7.86h-2.07v16.1h2.07Z"/>
      <path class="cls-2" d="M132.47,43.39c0,1.88.09,3.93.09,3.93h-6.92s.05-2.06.05-3.93v-17.78c0-1.87-.05-3.93-.05-3.93h16.36v4.96s-3.66-.09-4.9-.09h-4.63v5.17l4.63.05c.87,0,3.85-.05,3.85-.05v4.72s-2.65-.07-3.85-.07l-4.63.03v7Z"/>
      <path class="cls-2" d="M85.56,42.14c-3.26,0-5.76-2.17-5.76-5.58v-.29s6.05-.15,8.1-.15c3.49,0,4.93-.03,7.68-.07v-1.93c0-8.74-3.73-12.99-11.41-12.99-3.54,0-11.78,1.32-11.78,13.56,0,8.16,4.15,13.04,11.4,13.04,5.69,0,9.19-1.44,11.72-3.28-.28-.42-2.41-4.21-2.68-4.62-1.52,1.15-4.03,2.31-7.26,2.31M79.79,31.37c.1-1.48.64-4.93,4.41-4.93s4.08,3.24,4.08,4.95v.34s-2.58.07-4.12.07-4.38-.07-4.38-.07l.02-.36Z"/>
    </g>
  </g>
</svg>