<svg width="15" height="16" viewBox="0 0 15 16" fill="none" xmlns="http://www.w3.org/2000/svg">
<path d="M7.5 15.2083C6.61111 15.2083 5.81597 14.9792 5.11458 14.5208C4.41319 14.0625 3.84028 13.4583 3.39583 12.7083L1.41667 13.8333L0.583333 12.3958L2.72917 11.1458C2.6875 10.9931 2.65278 10.8368 2.625 10.6771C2.59722 10.5174 2.56944 10.3611 2.54167 10.2083H0V8.54167H2.54167C2.56944 8.375 2.59722 8.21181 2.625 8.05208C2.65278 7.89236 2.6875 7.73611 2.72917 7.58333L0.583333 6.33333L1.41667 4.89583L3.375 6.04167C3.48611 5.84722 3.61458 5.65625 3.76042 5.46875C3.90625 5.28125 4.05556 5.11111 4.20833 4.95833C4.18056 4.86111 4.16667 4.76389 4.16667 4.66667C4.16667 4.56944 4.16667 4.47222 4.16667 4.375C4.16667 4.04167 4.21528 3.72222 4.3125 3.41667C4.40972 3.11111 4.54167 2.82639 4.70833 2.5625L3.33333 1.1875L4.5 0L5.95833 1.41667C6.19444 1.29167 6.44097 1.19792 6.69792 1.13542C6.95486 1.07292 7.22222 1.04167 7.5 1.04167C7.77778 1.04167 8.04861 1.07639 8.3125 1.14583C8.57639 1.21528 8.82639 1.3125 9.0625 1.4375L10.5 0L11.6667 1.1875L10.2917 2.5625C10.4583 2.82639 10.5868 3.11111 10.6771 3.41667C10.7674 3.72222 10.8125 4.04167 10.8125 4.375C10.8125 4.47222 10.8125 4.56597 10.8125 4.65625C10.8125 4.74653 10.7986 4.84028 10.7708 4.9375C10.9236 5.09028 11.0729 5.26389 11.2188 5.45833C11.3646 5.65278 11.4931 5.84722 11.6042 6.04167L13.5833 4.91667L14.4167 6.35417L12.25 7.58333C12.2917 7.73611 12.3299 7.89236 12.3646 8.05208C12.3993 8.21181 12.4306 8.375 12.4583 8.54167H15V10.2083H12.4583C12.4306 10.375 12.4028 10.5382 12.375 10.6979C12.3472 10.8576 12.3125 11.0139 12.2708 11.1667L14.4167 12.4167L13.5833 13.8542L11.6042 12.7083C11.1597 13.4583 10.5868 14.0625 9.88542 14.5208C9.18403 14.9792 8.38889 15.2083 7.5 15.2083ZM5.91667 3.83333C6.15278 3.73611 6.40625 3.66319 6.67708 3.61458C6.94792 3.56597 7.22222 3.54167 7.5 3.54167C7.77778 3.54167 8.04514 3.5625 8.30208 3.60417C8.55903 3.64583 8.80556 3.71528 9.04167 3.8125C8.93056 3.49306 8.73611 3.22917 8.45833 3.02083C8.18056 2.8125 7.86111 2.70833 7.5 2.70833C7.13889 2.70833 6.8125 2.81597 6.52083 3.03125C6.22917 3.24653 6.02778 3.51389 5.91667 3.83333ZM7.5 13.5417C8.51389 13.5417 9.32292 13.1181 9.92708 12.2708C10.5312 11.4236 10.8333 10.4583 10.8333 9.375C10.8333 8.40278 10.5521 7.46528 9.98958 6.5625C9.42708 5.65972 8.59722 5.20833 7.5 5.20833C6.41667 5.20833 5.59028 5.65625 5.02083 6.55208C4.45139 7.44792 4.16667 8.38889 4.16667 9.375C4.16667 10.4583 4.46875 11.4236 5.07292 12.2708C5.67708 13.1181 6.48611 13.5417 7.5 13.5417ZM6.66667 11.875V6.875H8.33333V11.875H6.66667Z" fill="white" fill-opacity="0.8"/>
</svg>
