<svg width="15" height="17" viewBox="0 0 15 17" fill="none" xmlns="http://www.w3.org/2000/svg">
<path d="M6.75 5.83333C5.98611 5.83333 5.23611 5.94097 4.5 6.15625C3.76389 6.37153 3.08333 6.69444 2.45833 7.125L3.33333 15H11.6667L12.5833 6.66667H12C11.4722 6.66667 10.9931 6.62847 10.5625 6.55208C10.1319 6.47569 9.54167 6.32639 8.79167 6.10417C8.47222 6.00694 8.13889 5.9375 7.79167 5.89583C7.44444 5.85417 7.09722 5.83333 6.75 5.83333ZM2.25 5.3125C2.95833 4.9375 3.69097 4.65278 4.44792 4.45833C5.20486 4.26389 5.97917 4.16667 6.77083 4.16667C7.1875 4.16667 7.60069 4.19444 8.01042 4.25C8.42014 4.30556 8.82639 4.38889 9.22917 4.5C9.92361 4.69444 10.4549 4.82639 10.8229 4.89583C11.191 4.96528 11.5833 5 12 5H12.7708L13.125 1.66667H1.875L2.25 5.3125ZM3.3125 16.6667C2.88194 16.6667 2.51042 16.5278 2.19792 16.25C1.88542 15.9722 1.70833 15.6181 1.66667 15.1875L0 0H15L13.3333 15.1875C13.2917 15.6181 13.1146 15.9722 12.8021 16.25C12.4896 16.5278 12.1181 16.6667 11.6875 16.6667H3.3125ZM6.75 15C7.09722 15 7.44444 15 7.79167 15C8.13889 15 8.47222 15 8.79167 15C9.54167 15 10.1215 15 10.5312 15C10.941 15 11.3194 15 11.6667 15H3.33333C3.52778 15 3.95486 15 4.61458 15C5.27431 15 5.98611 15 6.75 15Z" fill="white" fill-opacity="0.8"/>
</svg>
