<svg width="17" height="18" viewBox="0 0 17 18" fill="none" xmlns="http://www.w3.org/2000/svg">
<path d="M1.35417 10.8542L0 9.875L4.16667 3.20833L6.66667 6.125L10 0.708333L12.5 4.45833L15.3125 0L16.6667 0.979167L12.5417 7.52083L10.0625 3.79167L6.89583 8.9375L4.375 6L1.35417 10.8542ZM11.25 14.1667C11.8333 14.1667 12.3264 13.9653 12.7292 13.5625C13.1319 13.1597 13.3333 12.6667 13.3333 12.0833C13.3333 11.5 13.1319 11.0069 12.7292 10.6042C12.3264 10.2014 11.8333 10 11.25 10C10.6667 10 10.1736 10.2014 9.77083 10.6042C9.36806 11.0069 9.16667 11.5 9.16667 12.0833C9.16667 12.6667 9.36806 13.1597 9.77083 13.5625C10.1736 13.9653 10.6667 14.1667 11.25 14.1667ZM15.5 17.5L13.25 15.25C12.9583 15.4444 12.6424 15.5903 12.3021 15.6875C11.9618 15.7847 11.6111 15.8333 11.25 15.8333C10.2083 15.8333 9.32292 15.4688 8.59375 14.7396C7.86458 14.0104 7.5 13.125 7.5 12.0833C7.5 11.0417 7.86458 10.1562 8.59375 9.42708C9.32292 8.69792 10.2083 8.33333 11.25 8.33333C12.2917 8.33333 13.1771 8.69792 13.9062 9.42708C14.6354 10.1562 15 11.0417 15 12.0833C15 12.4444 14.9514 12.7951 14.8542 13.1354C14.7569 13.4757 14.6111 13.7917 14.4167 14.0833L16.6667 16.3333L15.5 17.5Z" fill="white" fill-opacity="0.8"/>
</svg>
