<svg width="19" height="14" viewBox="0 0 19 14" fill="none" xmlns="http://www.w3.org/2000/svg">
<path d="M0 13.3333V11C0 10.5278 0.121528 10.0938 0.364583 9.69792C0.607639 9.30208 0.930556 9 1.33333 8.79167C2.19444 8.36111 3.06944 8.03819 3.95833 7.82292C4.84722 7.60764 5.75 7.5 6.66667 7.5C7.58333 7.5 8.48611 7.60764 9.375 7.82292C10.2639 8.03819 11.1389 8.36111 12 8.79167C12.4028 9 12.7257 9.30208 12.9688 9.69792C13.2118 10.0938 13.3333 10.5278 13.3333 11V13.3333H0ZM15 13.3333V10.8333C15 10.2222 14.8299 9.63542 14.4896 9.07292C14.1493 8.51042 13.6667 8.02778 13.0417 7.625C13.75 7.70833 14.4167 7.85069 15.0417 8.05208C15.6667 8.25347 16.25 8.5 16.7917 8.79167C17.2917 9.06944 17.6736 9.37847 17.9375 9.71875C18.2014 10.059 18.3333 10.4306 18.3333 10.8333V13.3333H15ZM6.66667 6.66667C5.75 6.66667 4.96528 6.34028 4.3125 5.6875C3.65972 5.03472 3.33333 4.25 3.33333 3.33333C3.33333 2.41667 3.65972 1.63194 4.3125 0.979167C4.96528 0.326389 5.75 0 6.66667 0C7.58333 0 8.36806 0.326389 9.02083 0.979167C9.67361 1.63194 10 2.41667 10 3.33333C10 4.25 9.67361 5.03472 9.02083 5.6875C8.36806 6.34028 7.58333 6.66667 6.66667 6.66667ZM15 3.33333C15 4.25 14.6736 5.03472 14.0208 5.6875C13.3681 6.34028 12.5833 6.66667 11.6667 6.66667C11.5139 6.66667 11.3194 6.64931 11.0833 6.61458C10.8472 6.57986 10.6528 6.54167 10.5 6.5C10.875 6.05556 11.1632 5.5625 11.3646 5.02083C11.566 4.47917 11.6667 3.91667 11.6667 3.33333C11.6667 2.75 11.566 2.1875 11.3646 1.64583C11.1632 1.10417 10.875 0.611111 10.5 0.166667C10.6944 0.0972222 10.8889 0.0520833 11.0833 0.03125C11.2778 0.0104167 11.4722 0 11.6667 0C12.5833 0 13.3681 0.326389 14.0208 0.979167C14.6736 1.63194 15 2.41667 15 3.33333ZM1.66667 11.6667H11.6667V11C11.6667 10.8472 11.6285 10.7083 11.5521 10.5833C11.4757 10.4583 11.375 10.3611 11.25 10.2917C10.5 9.91667 9.74306 9.63542 8.97917 9.44792C8.21528 9.26042 7.44444 9.16667 6.66667 9.16667C5.88889 9.16667 5.11806 9.26042 4.35417 9.44792C3.59028 9.63542 2.83333 9.91667 2.08333 10.2917C1.95833 10.3611 1.85764 10.4583 1.78125 10.5833C1.70486 10.7083 1.66667 10.8472 1.66667 11V11.6667ZM6.66667 5C7.125 5 7.51736 4.83681 7.84375 4.51042C8.17014 4.18403 8.33333 3.79167 8.33333 3.33333C8.33333 2.875 8.17014 2.48264 7.84375 2.15625C7.51736 1.82986 7.125 1.66667 6.66667 1.66667C6.20833 1.66667 5.81597 1.82986 5.48958 2.15625C5.16319 2.48264 5 2.875 5 3.33333C5 3.79167 5.16319 4.18403 5.48958 4.51042C5.81597 4.83681 6.20833 5 6.66667 5Z" fill="white" fill-opacity="0.8"/>
</svg>
