<svg width="27" height="21" viewBox="0 0 27 21" fill="none" xmlns="http://www.w3.org/2000/svg">
<path d="M13.1667 14C14.2083 14 15.0938 13.6354 15.8229 12.9062C16.5521 12.1771 16.9167 11.2917 16.9167 10.25C16.9167 9.20833 16.5521 8.32292 15.8229 7.59375C15.0938 6.86458 14.2083 6.5 13.1667 6.5C12.125 6.5 11.2396 6.86458 10.5104 7.59375C9.78125 8.32292 9.41667 9.20833 9.41667 10.25C9.41667 11.2917 9.78125 12.1771 10.5104 12.9062C11.2396 13.6354 12.125 14 13.1667 14ZM13.1667 12.5C12.5417 12.5 12.0104 12.2812 11.5729 11.8438C11.1354 11.4062 10.9167 10.875 10.9167 10.25C10.9167 9.625 11.1354 9.09375 11.5729 8.65625C12.0104 8.21875 12.5417 8 13.1667 8C13.7917 8 14.3229 8.21875 14.7604 8.65625C15.1979 9.09375 15.4167 9.625 15.4167 10.25C15.4167 10.875 15.1979 11.4062 14.7604 11.8438C14.3229 12.2812 13.7917 12.5 13.1667 12.5ZM13.1667 16.5C11.1389 16.5 9.29167 15.934 7.625 14.8021C5.95833 13.6701 4.75 12.1528 4 10.25C4.75 8.34722 5.95833 6.82986 7.625 5.69792C9.29167 4.56597 11.1389 4 13.1667 4C15.1944 4 17.0417 4.56597 18.7083 5.69792C20.375 6.82986 21.5833 8.34722 22.3333 10.25C21.5833 12.1528 20.375 13.6701 18.7083 14.8021C17.0417 15.934 15.1944 16.5 13.1667 16.5ZM13.1667 14.8333C14.7361 14.8333 16.1771 14.4201 17.4896 13.5938C18.8021 12.7674 19.8056 11.6528 20.5 10.25C19.8056 8.84722 18.8021 7.73264 17.4896 6.90625C16.1771 6.07986 14.7361 5.66667 13.1667 5.66667C11.5972 5.66667 10.1562 6.07986 8.84375 6.90625C7.53125 7.73264 6.52778 8.84722 5.83333 10.25C6.52778 11.6528 7.53125 12.7674 8.84375 13.5938C10.1562 14.4201 11.5972 14.8333 13.1667 14.8333Z" fill="#9CA3AF"/>
</svg>
